<svg xmlns="http://www.w3.org/2000/svg" xmlns:xlink="http://www.w3.org/1999/xlink" width="340" height="340" xmlns:v="https://vecta.io/nano"><defs><path id="A" d="M.058.153h14.006v21.551H.058z"/><path id="B" d="M.552.597h14.067v11.001H.552z"/><path id="C" d="M.749.597h24.106v11.001H.749z"/></defs><g transform="translate(0 59)" fill="none" fill-rule="evenodd"><g transform="translate(0 136)"><mask id="D" fill="#fff"><use xlink:href="#A"/></mask><path d="M6.132 19.619H2.34v-7.836h3.444c4.077 0 5.815 1.454 5.815 3.951 0 2.717-2.023 3.885-5.467 3.885zM2.34 2.241h2.749c3.191 0 4.675 1.137 4.675 3.632 0 2.214-1.516 3.856-5.056 3.856H2.34V2.241zm6.32 8.152c2.305-.792 3.57-2.432 3.57-4.741 0-3.445-2.654-5.499-6.668-5.499H0v21.551h6.575c3.951 0 7.49-1.8 7.49-5.78 0-2.846-2.056-5.056-5.404-5.531h0z" fill="#121414" mask="url(#D)"/></g><path d="M37.082 148.574c0 4.675-2.181 7.301-6.669 7.301-4.424 0-6.668-2.531-6.668-7.301v-12.421h-2.37v12.421c0 6.034 3.162 9.417 9.1 9.417 5.975 0 8.976-3.761 8.976-9.417v-12.421h-2.369v12.421m29.339 7.614v-2.621c-2.307 1.453-4.804 2.211-7.49 2.211-5.497 0-8.944-3.983-8.944-8.818 0-4.74 3.477-8.88 8.976-8.88 2.529 0 5.023.76 7.3 2.056v-2.559c-2.434-1.107-4.898-1.707-7.332-1.707-6.477 0-11.408 4.741-11.408 11.155 0 5.372 3.888 10.965 11.345 10.965 2.654 0 5.151-.571 7.553-1.803m13.319-9.668l9.639-10.365h-2.971l-9.45 10.113v-10.113h-2.37v21.552h2.37v-10.711l11.062 10.711h3.253L79.74 146.519m18.31 11.187h2.37v-21.551h-2.37zm28.858-3.729l-15.264-17.824h-1.959v21.552h2.275v-17.76l15.138 17.76h2.086v-21.552h-2.275v17.824m21.914-15.99c2.432 0 5.056.727 7.427 2.117v-2.465c-2.844-1.264-4.867-1.767-7.33-1.767-6.891 0-11.41 5.056-11.41 11.184 0 5.531 3.792 10.935 11.503 10.935a16.85 16.85 0 0 0 7.681-1.77v-8.785h-6.763v2.084h4.393v5.249c-2.214.821-3.51 1.106-5.311 1.106-5.37 0-9.036-3.731-9.036-9.04 0-5.056 3.854-8.849 8.848-8.849m34.647 19.72v-21.552h-2.371v9.608h-13.082v-9.608h-2.371v21.552h2.371v-9.764h13.082v9.764h2.371m21.092-8.879h-7.934l3.858-9.165 4.076 9.165zm-14.189 8.88h2.431l2.907-6.763h9.797l3.033 6.763h2.434l-9.607-21.678h-1.67l-9.325 21.678h0zm44.825-.001h2.368v-21.552h-2.243l-7.586 9.449-7.613-9.449h-2.244v21.552h2.37v-17.79h.062l7.203 9.006h.413l7.205-9.006h.064v17.79m17.334-12.104c-3.571-1.8-3.92-3.034-3.92-4.454 0-1.865 1.485-3.128 3.76-3.128 1.77 0 3.381.663 4.868 1.927v-2.687a9.04 9.04 0 0 0-4.804-1.389c-3.603 0-6.227 2.275-6.227 5.34 0 2.751 1.296 4.391 4.677 6.13 4.171 2.181 4.771 3.257 4.771 5.089 0 2.086-1.58 3.446-3.759 3.446-2.087 0-3.98-.981-5.594-2.752v2.973c1.646 1.232 3.542 1.895 5.594 1.895 3.697 0 6.163-2.402 6.163-5.593 0-2.938-1.075-4.488-5.529-6.796m16.032 2.339h13.083v9.764h2.367v-21.552h-2.367v9.608h-13.083v-9.608h-2.369v21.552h2.369v-9.764m24.725 9.764h2.371v-21.551h-2.371zm16.217-11.882h-2.211v-7.584h2.97c2.751 0 4.457 1.074 4.457 3.728 0 3.13-2.245 3.856-5.216 3.856zm3.57 1.423c2.626-.792 4.079-2.623 4.079-5.308 0-3.288-2.244-5.785-6.574-5.785h-5.656v21.55h2.369v-9.795h1.989c1.834 0 3.162.696 5.151 3.856l3.792 5.939h2.811l-4.17-6.443c-1.77-2.721-2.4-3.288-3.793-4.014h0zm17.141 8.31v-7.646h9.1v-2.118h-9.1v-7.521h9.417v-2.119h-11.786v21.551h12.038v-2.148h-9.669M65.619 185.899l-12.721-14.851h-1.631v17.961h1.894v-14.802l12.614 14.802h1.739v-17.961h-1.895v14.851m10.545-5.054h7.584v-1.763h-7.584v-6.269h7.847v-1.765h-9.823v17.961h10.034v-1.793h-8.058v-6.371m32.373 3.817h-.026l-5.424-13.614h-1.765l-5.319 13.668h-.027l-5.398-13.668h-2.002l7.19 18.091h.422l6.004-15.299 6.058 15.299h.42l7.137-18.091h-2.001l-5.267 13.614m36.783-13.614h-1.977v10.349c0 3.898-1.817 6.084-5.556 6.084-3.688 0-5.557-2.106-5.557-6.084v-10.349h-1.975v10.349c0 5.031 2.634 7.849 7.585 7.849 4.976 0 7.479-3.135 7.479-7.849v-10.349m20.817 14.851l-12.72-14.851h-1.632v17.961h1.895v-14.802l12.613 14.802h1.739v-17.961h-1.895v14.851m8.57 3.11h1.975v-17.961h-1.975zm14.512-3.976h-.025l-5.845-13.985h-1.975l7.609 18.144h.448l7.586-18.144h-1.976l-5.822 13.985m14.469-4.188h7.584v-1.763h-7.584v-6.269h7.845v-1.765h-9.82v17.961h10.031v-1.793h-8.056v-6.371m17.705-1.738h-1.842v-6.32h2.475c2.29 0 3.713.897 3.713 3.107 0 2.606-1.871 3.213-4.346 3.213zm2.977 1.183c2.185-.656 3.396-2.186 3.396-4.423 0-2.738-1.871-4.819-5.478-4.819h-4.713v17.961h1.976v-8.164h1.657c1.528 0 2.635.58 4.295 3.212l3.159 4.952h2.344l-3.476-5.372c-1.474-2.265-2.002-2.739-3.16-3.347h0zm16.069-1.368c-2.973-1.5-3.264-2.528-3.264-3.713 0-1.554 1.237-2.606 3.134-2.606 1.475 0 2.819.553 4.055 1.605v-2.238c-1.212-.762-2.607-1.158-4.002-1.158-3.001 0-5.189 1.897-5.189 4.452 0 2.289 1.081 3.658 3.899 5.107 3.477 1.818 3.976 2.713 3.976 4.241 0 1.736-1.316 2.868-3.136 2.868-1.735 0-3.315-.815-4.659-2.29v2.476c1.369 1.026 2.948 1.58 4.659 1.58 3.084 0 5.137-2.001 5.137-4.66 0-2.449-.896-3.742-4.609-5.663m10.332 10.086h1.975v-17.961h-1.975zm7.012-16.222h6.345v16.222h1.975v-16.222h6.425v-1.739h-14.745v1.739m25.844 4.897l-5.348-6.636h-2.369l6.716 8.375v9.586h2.027v-9.586l6.689-8.375h-2.373l-5.343 6.636" fill="#121414"/><g transform="translate(136 209.829)"><mask id="E" fill="#fff"><use xlink:href="#B"/></mask><path mask="url(#E)" d="M1.374 6.46h4.709v-.759H1.374V1.484h4.851V.739H.552v10.776h5.814v-.744H1.374V6.46m10.497-.821C9.926 4.783 9.705 4.074 9.705 3.22c0-1.107.869-1.882 2.18-1.882.79 0 1.581.286 2.324.825v-.935a4.51 4.51 0 0 0-2.307-.631c-1.769 0-3.034 1.123-3.034 2.654 0 1.406.68 2.197 2.481 3.018 2.023.95 2.417 1.533 2.417 2.609 0 1.247-.9 2.037-2.164 2.037-.98 0-1.85-.395-2.702-1.17v1.025c.789.588 1.69.886 2.687.886 1.816 0 3.033-1.152 3.033-2.778 0-1.473-.585-2.261-2.748-3.24" fill="#121414"/></g><path d="M152.693 211.313h3.903v10.031h.821v-10.031h3.935v-.745h-8.659v.745m9.849 10.032h1.012v-1.374h-1.012z" fill="#121414"/><g transform="translate(171.943 209.829)"><mask id="F" fill="#fff"><use xlink:href="#C"/></mask><path mask="url(#F)" d="M.749 3.125l.459.587 2.227-1.755v9.559h.822V.598h-.363L.749 3.125m11.729 7.758c-1.376 0-2.324-.947-2.324-2.29 0-1.279.918-2.229 2.292-2.229 1.406 0 2.322.917 2.322 2.213 0 1.375-.932 2.306-2.29 2.306zm-2.119-7.441c0-1.248.95-2.07 2.101-2.07 1.265 0 2.134.901 2.134 2.07 0 1.296-.965 2.149-2.101 2.149-1.154 0-2.134-.853-2.134-2.149zm3.415 2.511c1.073-.505 1.642-1.436 1.642-2.527 0-1.58-1.279-2.828-2.922-2.828-1.612 0-2.955 1.216-2.955 2.828 0 1.058.506 1.958 1.626 2.527-1.2.461-1.863 1.472-1.863 2.67 0 1.66 1.264 3.035 3.159 3.035 1.834 0 3.161-1.264 3.161-3.035 0-1.247-.695-2.209-1.848-2.67h0zm7.794.018c-1.343 0-2.353-.935-2.353-2.293 0-1.328.946-2.321 2.306-2.321C23.101 1.358 24 2.541 24 4.28c0 1.264-1.375 1.691-2.432 1.691zM21.521.597c-1.785 0-3.145 1.295-3.145 3.114 0 1.69 1.249 3.001 3.05 3.001a3.77 3.77 0 0 0 2.354-.822c-.363 1.785-1.627 3.477-3.934 5.167l.49.6c2.892-2.007 4.52-4.644 4.52-7.221 0-2.308-1.311-3.84-3.334-3.84h0z" fill="#121414"/></g><path fill="#121414" d="M200.2 212.954l.457.587 2.229-1.755v9.559h.821v-10.917h-.362l-3.145 2.527"/><g fill="#1a1919"><path d="M153.419 39.599c.085.121.176.241.244.372l16.236-11.815 16.12 11.731a3.27 3.27 0 0 1 .246-.371l-16.366-11.91-16.48 11.992m-2.665-1.619l19.145-13.931 19.112 13.908.617-.101-19.729-14.357-19.761 14.38.616.101m-1.958-2.683l-1.782.843-.279.657 2.06-1.5m7.278-5.295l13.826-10.061 13.521 9.84c-.159-.289-.281-.563-.388-.832l-13.134-9.558-13.372 9.73a7.21 7.21 0 0 1-.455.881m35.244 5.523l1.507 1.096-.207-.481-1.3-.615m-21.416-20.243l-12.614 9.179.017.248-.003.291 12.599-9.168 12.428 9.045-.001-.168a3.21 3.21 0 0 1 .024-.365l-12.452-9.061m-13.732 5.884l.112.171c.04.061.08.138.119.211l13.504-9.826 13.382 9.739.07-.123c.04-.072.109-.168.167-.255L169.9 11.172l-13.734 9.994m-2.12-2.567l.3.332 1.528-1.113c-.29.061-.582.091-.836.059l-.992.722m28.062-2.101c-.072-.182-.12-.4-.135-.649l-12.074-8.786-12.257 8.919a2.07 2.07 0 0 1-.212.704l12.468-9.073 12.209 8.885m3.543 2.027l-.934-.679c-.039.008-.08.024-.118.031a2.45 2.45 0 0 1-.601-.005l1.352.984.3-.331m7.518 1.912l.389-.267-.765-.558-.283.345.66.48m-46.267-.747l-.742.54.389.267.636-.462-.283-.345m-1.739-2.292l-.266-.357-2.575 1.874.664.067 2.177-1.583m49.365-.081l2.265 1.649.68-.056-2.679-1.949-.266.357m3.215 11.15c3.158-.527 3.732-3.214 1.155-4.455-.21-.105-.38.192-.174.308.76.428 1.166 1 1.237 1.579a.88.88 0 0 0-.357-.132c-.234-.031-.289.318-.053.352s.34.148.361.371c-.177.623-.759 1.185-1.721 1.497.142-.24.047-.47-.058-.712-.089-.219-.281-.093-.187.124.069.17.017.417-.354.764-.164.151-.067.336.153.305m-11.59-14.6c.187.213.381-.628.718-.897-.383 0-.933.646-.718.897m6.031 28.484c.697-.193.908.024 1.362.347.254.178-.82-.454 1.482-1.447-2.233.289-3.681 1.138-2.844 1.101m-.832-2.626c-.591-.051-1.851.036-2.37.293-.265.127.211.324.5.221.647-.231 1.396-.412 1.863-.369.324.029.333-.117.007-.145m2.411 1.259c-.588-.051-1.85.037-2.368.293-.266.128.211.324.499.221.648-.23 1.396-.412 1.863-.369.324.029.332-.117.006-.145M141.686 27.4c.093-.218-.098-.343-.187-.124-.104.242-.201.472-.058.712-.964-.312-1.544-.874-1.722-1.497.022-.223.123-.336.362-.371s.182-.383-.053-.352c-.138.022-.258.065-.358.132.072-.579.478-1.15 1.239-1.579.206-.116.035-.413-.176-.308-2.575 1.241-2.002 3.928 1.156 4.455.219.031.318-.154.153-.305-.371-.347-.424-.594-.355-.764m11.788-13.529c.215-.251-.335-.897-.718-.897.337.269.531 1.109.718.897m-7.393 28.831c.454-.323.664-.54 1.362-.347.836.037-.611-.812-2.844-1.101 2.302.994 1.229 1.625 1.482 1.447m4.564-2.677c-.519-.257-1.781-.345-2.369-.293-.326.028-.32.174.005.145.469-.043 1.217.138 1.864.369.289.104.765-.093.5-.221m-2.412 1.259c-.52-.256-1.781-.345-2.369-.293-.326.028-.319.174.005.145.468-.043 1.215.139 1.863.369.289.104.766-.092.501-.221m62.589 31.478c-3.112 8.353-7.589 15.959-13.305 22.607-7.136 8.302-16.251 15.142-27.088 20.329l-.487.232-.485-.231c-10.84-5.188-19.955-12.028-27.091-20.33-5.716-6.648-10.191-14.254-13.304-22.607-5.406-14.508-4.814-26.256-4.808-26.369l.004-.061v-.062l-.006-44.127h91.377l-.005 44.127v.063l.003.056c.007.118.598 11.865-4.807 26.373zm6.806-26.493l.005-46.129h-95.382l.006 46.129c-.029.477-2.414 47.903 46.336 71.237l1.349.644 1.348-.644c48.75-23.334 46.366-70.76 46.337-71.237h0zm-47.008 65.418l-.722.345-.721-.345c-24.468-11.711-34.621-30.167-38.824-43.89l39.545-28.781 39.544 28.781c-4.202 13.723-14.355 32.18-38.822 43.89zm-41.662-44.36c4.236 14.435 14.579 33.421 39.7 45.444l1.24.593 1.24-.593c25.121-12.023 35.464-31.009 39.699-45.444l-40.939-29.798-40.94 29.798h0zm47.064-7.301c1.063-2.188 1.715-4.191 1.195-5.038-.533.561-1.274 1.9-2.226 4.007.939-.505 1.28-.163 1.031 1.031m-3.58-.215c-.796-1.571-1.215-5.168-.703-7.75-1.318.773-2.6 2.868-2.706 7.479.685-.867 1.459-2.114 3.41.271m-8.776-5.045c-.413 1.545-.165 3.58 1.517 5.532-.287-1.087.394-1.43 2.054-1.032-1.579-1.027-2.769-2.53-3.571-4.501m15.547 8.887c.52-.629.811-1.315.871-2.055-.419.545-1.627 1.082-2.491 1.3 1.082-.017 1.619.228 1.619.755"/><path d="M159.493 60.078c-.181.983.202 2.128 1.141 3.414.261-.765.946-1.16 2.047-1.189-1.148-.372-2.212-1.109-3.188-2.225m14.408-7.89c-.228 1.431-.387 2.772-.309 4.238-.044 1.826.302 1.867 1.046.118.676-2.273 2.187-3.454 2.716-5.137.929 1.222 1.657 2.779 1.657 4.449 0 3.085-1.08 3.881-2.754 6.31 2.63-1.635 3.174-1.69 4.607-4.29.564.51.855 1.307.855 2.529 0 1.142-1.021 4.394-3.183 6.511-1.969-1.49-5.371-2.662-8.364-2.662-2.634 0-6.062 1.124-7.98 2.64-2.32-1.61-4.112-4.435-4.112-7.033a4.53 4.53 0 0 1 .709-2.57c1.131 2.301 3.429 3.16 5.584 4.165-1.624-2.192-2.498-3.018-2.498-5.928 0-.954 1.175-4.103 3.002-4.994.533-.257.895-.577 1.138-.937.07 1.207-.854 2.139-.854 3.442 0 2.699.729 2.968 2.253 4.728.236-1.936.427-3.711 1.47-5.427 1.215-1.989 2.771-3.604 2.184-6.272 2.036 1.348 3.22 3.697 2.835 6.121zm3.709 18.137c-.171 0-.407-.21-.658-.454-.972-.876-2.829-2.696-6.842-2.696-3.435 0-5.177 1.624-6.116 2.579-.242.269-.493.648-.722.648l-.107.032c-.857 0-1.359-.52-1.359-1.365 0-1.382 4.332-3.849 8.356-3.849 3.292 0 6.377 1.351 7.92 2.6l.243.209c.5.446.78.874.78 1.205 0 .596-.578 1.091-1.496 1.091zm-4.239 13.924l-.507 4.65c-.356 3.849-.604 8.145-.757 12.881 0 .563-.998.688-1.701.628-.308 0-.433 1.08 0 1.08 1.769 0 1.71-.693 2.052.188a1.7 1.7 0 0 1 .154.702c0 1.098-1.153 2.177-2.849 2.177s-2.85-1.079-2.85-2.177c0-.379.144-.762.401-1.098.335-.343.21.207 1.734.207.387 0 .309-1.08 0-1.08-.585.049-1.333-.268-1.333-.795l-.151-6.981-.508-9.195c-.516-6.668-1.338-11.541-2.493-14.608.983-.964 2.249-2.463 5.556-2.463 3.796 0 5.162 1.594 6.23 2.515-1.274 3.277-2.264 7.736-2.978 13.367zm-4.521-33.756c-1.148 1.632-1.786 2.726-2.279 4.633-.181-.35-.361-.637-.361-1.819 0-.862.166-1.241.434-2.003.678-1.885.493-4.013-1.082-4.934l.162 1.356c-.052 1.074-.479 1.436-1.318 1.845-2.312 1.126-3.605 4.743-3.605 5.958 0 1.082.102 2.088.471 3.092-1.417-1.097-1.676-2.051-2.114-3.666-1.237 1.638-2.15 2.703-2.15 4.908 0 3.016 1.991 6.043 4.396 7.787-.416.493-.659 1.013-.659 1.533 0 1.433.965 2.437 2.43 2.437a1.22 1.22 0 0 0 .493-.107c.802 2.24 1.44 5.46 1.926 9.671l.899 13.543.158 7.677c-.504.532-.81 1.207-.81 1.977 0 1.901 1.874 3.25 3.922 3.25s3.921-1.349 3.921-3.25a2.78 2.78 0 0 0-.522-1.635c.095-3.535.246-6.812.457-9.845l.941-9.486c.681-5.005 1.596-8.985 2.724-11.959.112.04.238.051.37.051 1.166 0 2.533-.696 2.533-2.158 0-.574-.311-1.156-.84-1.722 2.33-2.325 3.442-5.807 3.442-7.219 0-2.01-.577-3.081-2.311-4.031l-.264.464-.179.331a14.67 14.67 0 0 0 .049-1.313c0-3.016-1.722-5.053-3.654-7.063.072 2.975-.274 2.621-1.681 4.909.242-1.875.635-2.766-.119-4.765-1.196-3.139-3.199-3.977-5.95-5.347 1.543 2.735 2.161 4.068.17 6.903h0zm2.82 37.604l.288-3.069c.534-4.86 1.4-9.259 2.085-13.218.183-1.046-1.12-1.153-1.305-.19-.799 4.273-1.157 9.083-1.55 14.43l-.078.983-.065.905c-.033.487.519.585.626.159m-2.295-17.299l.309 17.657c-.008.511.689.514.689.004l.511-17.65c.008-1.174-1.502-1.128-1.509-.011"/><path d="M168.952 86.049c-.393-5.347-.751-10.155-1.55-14.43-.185-.962-1.487-.855-1.303.19.685 3.959 1.55 8.359 2.084 13.219l.287 3.068c.107.426.66.326.627-.158l-.066-.906-.078-.983m41.992-24.175l-41.046-29.875-41.047 29.875-.202-1.197-.414-2.203 17.196-12.513c-.103-.007-.206-.013-.31-.042-.087-.024-.165-.065-.245-.105l-16.726 12.171-.46-3.223 15.498-11.278c-.07-.05-.133-.104-.212-.149l-.192-.108-15.153 11.028-.287-3.35 14.283-10.393.014-.346.008-.22-14.331 10.428-.038-3.422.003-.037v-.073l6.245-4.545-.552-.149-5.695 4.144v-3.558l3.224-2.346c-.069-.136-.123-.28-.164-.431l-3.06 2.227-.001-3.558 4.954-3.605-.65-.077-4.304 3.132v-3.558l1.994-1.451a1.45 1.45 0 0 1 .256-.736l-2.251 1.638-.001-3.558 5.273-3.836c.03-.236.071-.452.133-.647l-5.406 3.933V26.3l16.337-11.888-.118-.465-16.22 11.804-.001-3.558 17.067-12.419a7.12 7.12 0 0 1 .563-.759c.826-.966 1.905-1.619 3.069-1.885l1.976-1.439h4.89l-2.99 2.177.396.261 3.35-2.438h4.89l-5.656 4.116c.092.119.188.237.252.367l6.16-4.483h4.89l-10.217 7.434.217.292c.016.022.036.04.053.062l10.702-7.789h6.011l10.597 7.712.253-.342-10.094-7.37h4.89l6.047 4.401a2.1 2.1 0 0 1 .251-.367l-5.542-4.033h4.89l3.27 2.38.396-.261-2.91-2.119h4.89l2.125 1.547a5.74 5.74 0 0 1 2.752 1.777l.41.524 17.389 12.654v3.557L196.15 13.843l-.117.465 16.48 11.992v3.558l-5.629-4.097a3.68 3.68 0 0 1 .174.676l5.456 3.97v3.558L209.8 31.99c.349.319.497.655.54.943l2.173 1.581v3.558l-4.333-3.152-.637.085 4.97 3.617v3.558l-3.201-2.329a2.23 2.23 0 0 1-.149.442l3.349 2.437v3.557l-5.743-4.179-.545.153 6.288 4.576v.073l.002.037c.002.027.065 1.276-.037 3.422l-14.495-10.547a2.61 2.61 0 0 0 .001.338l.009.22L212.45 50.9l-.288 3.35-15.231-11.084c-.022.014-.038.028-.061.041l-.222.123c-.047.027-.082.06-.125.088l15.582 11.339-.461 3.223-16.788-12.217c-.108.065-.226.116-.352.151-.055.016-.111.014-.166.022l17.222 12.532-.415 2.203-.202 1.197zm-83.665-43.79l17.029-12.393h4.89L127.28 21.642v-3.558zm-.001-4.109l11.384-8.283h4.89L127.28 17.534v-3.558zm0-4.107l5.738-4.176h4.89l-10.628 7.734V9.868zm-.001-4.109l.092-.067h4.884l-4.976 3.621-.001-3.554zm85.242 3.558l-4.982-3.625h4.982v3.625zm-10.63-3.625h4.891l5.738 4.176-.001 3.557-10.628-7.734zm-5.645 0h4.889l11.384 8.283v3.558L196.245 5.692zm16.272 15.951L190.598 5.692h4.891l17.029 12.393-.001 3.558zm1.199 21.691v-4.109h.001v-.275h-.001l.001-3.833V31.01l.001-.001v-.275h-.001l.001-3.833v-4.108h.001v-.275l-.001-.001.001-3.832v-4.109h.001v-.275h-.001l.001-3.832v-.276l.001-5.7h-87.644v5.976l.001 3.832h-.001v.275h.001v4.109l.001 3.832-.001.001v.275h.001V26.9l.001 3.833h-.001v.275h.001v4.108l.001 3.833v4.384l.001 3.545c-.011.168-.336 6.681 1.788 15.854l.033.142.238 1.003 41.758-30.392 41.757 30.392.238-1.003.033-.142c2.125-9.172 1.799-15.686 1.788-15.854l.001-3.545h0z"/><path d="M188.855 11.357c0-.07.057-.125.126-.125s.126.055.126.125-.057.126-.126.126-.126-.057-.126-.126zm4.811 32.683l-.108-.094c-.435-.411-.731-1.1-1.64-1.1-.639 0-1.324.406-1.77.696-.079-.174-.16-.351-.099-.563.396-1.341 1.643-1.237.771-1.446-.501-.121-1.067-.077-1.474.006.481-.722 1.535-1.055 2.837-1.055l1.391.061c1.173.026 1.975-.433 2.165-1.542.027-.153-.203-.55-.23-.833l-.005-.067-.065-1.381-.018-.487-.272-.754-.047-.085c-.465-1.313-1.381-2.111-1.766-3.462.052-.481-.026-1.036-.154-1.316a.25.25 0 0 0-.447.204c.081.178-.057.423-.17.7l-.136.035c-.526-.041-1.591-.153-3.291-1.703-.243-.225-.576.139-.329.361 1.782 1.629 3.34 2.061 3.775 2.339.177.113.998.974.791 1.413l-.009.005c-1.001-.181-3.106-1.232-4.836-2.665-.04.214-.095.42-.153.626-1.712-1.189-3.32-2.79-3.881-4.67 0 0-.36-1.517-.298-2.465s.675-2.386.675-2.386c.231-.723 3.939-4.534 3.939-4.534l.678-.595c1.211-1.051 2.769-2.08 2.769-4.085.001-.69-.119-1.103-.353-1.749-.327-.889-.401-1.332-.674.066s-1.005 1.869-2 1.909l.328-.204s-.327.091-.825-.56c-.04-.14-.065-.318.062-.372a2.9 2.9 0 0 0 .794-.566c.211-.152.315-.387.231-.588-.092-.217-.369-.301-.648-.224-.033.01-.065.011-.097.024-.269.083-.718.293-.871.293-.09.001-.155-.073-.205-.156-.094-.362-.136-.693-.11-.908l.032-.122a1.22 1.22 0 0 1 .224-.206c.668-.461 1.324-.911 2.205-.911 2.139 0 4.101 1.987 3.995 4.158-.001.017.008.032.018.042-.075.119-.049.557-.084.702a3.48 3.48 0 0 1-.26.743c-.173.355-.402.691-.618 1.022l-1.466 2.096-2.401 3.271c-.62.991-.607 1.29-.731 1.813s.098 1.534.112 1.795.272.419.272.419a.23.23 0 0 0 .351-.134l.017-.044.035.025c.145.081.302.023.354-.135l.083-.235c.235-.151 3.01-1.396 3.307-1.78 1.002-.88 1.824-1.082 2.869-.824-.137.323-.357.652.512.357 1.071-.364 2.268-.024 3.228.609-1.445.859-.584.656.115.59.877-.085 2.156.427 2.641 1.228l-.426-.037c-.484-.032-1.561.091-.07.534 1.128.338 1.717.864 1.797 1.885l-.423-.171c-.397-.153-1.251-.789-.428.525l1.081 1.578c.016.196-.015.476-.105.851-.302.547-.798.839-1.525.856.322-.652.179-1.426-.044-1.91-.101-.223-.404-.101-.326.13.35 1.025-.289 2.086-1.361 2.086-.263 0-.567-.036-.811-.094.373-.544.554-1.026.478-1.43-.042-.226-.286-.234-.344-.013-.153.595-.538.945-1.189 1.057a.18.18 0 0 0 .06.35c.312-.053.58-.157.8-.312l-.237.343c-.308.417 1.242.452 1.242.452.156 0 .308-.017.447-.051 1.337.394 2.804.582 4.094.683.236.022.471-.256.236-.273-1.217-.099-2.493-.325-3.742-.673l.189-.153c-.003.082.06.158.18.158 1.635 0 1.966-.674 2.191-1.098a4.51 4.51 0 0 0 .098-.52 27.59 27.59 0 0 0 3.424 3.584c.208.156-1.021.241-1.633.241-3.134 0-7.545-.721-11.477-3.536-1.937-1.479-1.683-.821-.25.335l1.999 1.51c.688.527 1.14 1.051 1.157 1.455 0 .359-1.459-.94-.215.689.315.425.241 1.968.096 1.968-.063 0-.283-.235-.375-.45-.349-.854-.624-.667-.312.265.152.459.143.966-.026 1.38l.011.004c-.012.023-.022.063-.034.092-.107.268-.207.77-.287 1.253-.024.155-.138.346-.223.528-.045.095-.083.188-.094.273-.102.813-.16 1.618-.16 1.927 0 .404-.035.62-.465.861l-.227.127a3.96 3.96 0 0 0-1.806 2.136zm-4.879-3.528c-.267-.091-.805 0-.992 0s-.184-.108.352-.562c.541-.459 2.763-.659 3.17-.641s2.156-.132 2.88-.168.489-1.784.497-2.327c.001-.036-.977-2.129-.994-2.186.027.009.07.009.116.008.115-.005.261-.027.333-.008.052.145.818 1.825.817 1.874 0 0 .057.428.101.965.052.659.083 1.482-.051 1.915-.242.784-1.115.67-1.637.748s-1.558.018-2.062.018-1.776.567-1.776.567-.485-.112-.754-.203zm-.55-27.509c-.077-.115-.135-.228-.162-.311-.183-.554-.722.613-2.692 2.288-.185.154.01.338.188.177l2.269-1.88a.96.96 0 0 0 .23.305c-.036.165-.057.302-.068.41-1.42.784-3.049 2.182-3.757 2.182-.441 0-.645-.085-.645-.455 0-.181.219-.265.505-.547.578-.584.882-.862 1.35-1.555.532-.787.452-1.106.755-1.106.425 0 .833-.158 1.097-.417a.89.89 0 0 1 .898.507.63.63 0 0 1 .055.268.59.59 0 0 1-.024.134zm9.748 7.619a7.03 7.03 0 0 1 2.595.525c-.159.196.141.512.459.583a4.73 4.73 0 0 1 2.408 1.342c-.096.134-.066.312.105.458.509.423.894 1.052.944 1.707.024.372.854.742.854 1.86 0 .695-.174 1.195-.415 1.807-.412-.487-.613-.814-.808-1.093.664.062.567-1.809-.683-2.625.088-.231-.259-.733-.378-.928-.482-.787-1.494-1.109-2.388-1.249.093-.707-2.066-1.375-2.497-1.433-.58-.075-.848-.12-1.314.032.081-.203-.312-.411-.959-.472.319-.363 1.298-.513 2.077-.513zm7.885 16.7c.335.403 1.371 1.513 1.573 2.037 0 .708-2.158 1.177-2.623 1.177-.893 0-5.623-4.207-6.463-4.877a7.59 7.59 0 0 0 .016-.656c.219.164.77.473 1.682.6 1.067 1.133 2.431 2.126 3.625 3.118.184.152.407-.119.226-.269-1.088-.908-2.216-1.791-3.214-2.803l.087.003c.54 0 .985-.13 1.193-.476.889 1.077 1.921 2.058 2.876 3.064a.18.18 0 0 0 .259-.243c-1.055-1.111-2.215-2.371-3.001-3.488-.094-.565-.574-1.198-.574-1.198.632.143 1.257.25 1.865.351.529 1.286 1.585 2.604 2.472 3.658zm-7.776-3.6c.932.468.077-1.348-.051-1.56a21.77 21.77 0 0 0 2.498.925c.486.455 1.007 1.016 1.007 1.497 0 .308.013.576-.769.576-1.098 0-1.818-.274-2.437-.816-.014-.202-.05-.331-.248-.622zm-2.047 8.551l.229-.127c.608-.338.507-.628.507-1.172 0-1.224-.141-1.052.195-2.22 0 0 .268-.412.152-.933.207-.537.485-.686.552-1.356.247.223.408.172.517-.03 1.413 1.138 2.714 2.279 3.796 3.156 1.112.899 2.134 1.65 2.825 1.65.86 0 3.329-.564 3.329-1.884 0-.367-.363-.82-.566-1.086-1.152-1.476-2.576-2.831-3.383-4.54a23.34 23.34 0 0 0 2.239.109c.405 0 3.478-.178 2.51-.978-1.475-1.214-2.063-1.528-3.599-3.454.42-.852.56-1.406.56-2.313 0-1.265-.767-1.793-.826-2.041-.062-.566-.589-1.284-.971-1.718.339-.639-2.198-1.902-2.687-2.065.178-.799-2.896-1.153-3.441-1.153-1.252 0-2.016.146-3.005.824a.33.33 0 0 0-.134.15c-.363.026-.848.267-1.365.643l.01-.039c-.22.153-2.963 1.288-3.205 1.417-.224.17-.425.365-.673.513l-.17.071c-.055-.284-.078-.854.266-1.786.468-1.264 1.637-2.404 2.447-3.451.569-.735 1.14-1.472 1.665-2.239.509-.745 1.022-1.871 1.176-2.779.229-1.343-.347-2.627-1.207-3.63-.833-.973-2.016-1.591-3.31-1.591-1.436 0-2.153.82-3.281 1.479-.318.126-.994.347-1.401.767-.494.51-.289 1.576-.353 2.295-.27.461-.654.942-.969 1.377-.566.782-1.3 1.073-1.3 1.583a.93.93 0 0 0 .223.604c.169.236.715.385 1.038.343 1.173-.186 3.111-1.701 4.309-2.233 1.133-.503 2.122-.305 2.915-1.656a4.31 4.31 0 0 1 .016.425c0 1.601-1.322 2.449-2.438 3.473-.231.211-.459.412-.72.569 0 0-3.675 3.818-4.125 4.723-.363.522-.852 2.128-.852 2.741 0 .935.022 1.5.191 2.274.227 1.044.455 2.245 1.932 3.764l1.756 1.278c.56.409 1.361.87 2.233 1.33h-.002a16.9 16.9 0 0 0 .943.482l.069.035c.701.326 1.618.693 2.245.697l.312.024c.279.514 1.128 2.366 1.088 2.719-.079.697.01 1.251-.294 1.456-.374.254-2.882.238-3.379.238-1.774 0-3.366.57-3.743 1.908-.158.574 1.015.092 1.43.035.306-.031.553.178.64.264-.167.209-.323.425-.399.696-.159.575 1.016.093 1.428.036-.349.387-.528.815-.528 1.035 0 .388.06.706.378 1.1.407.502 1.417-.752 2.2-.752.41 0 .855.698 1.065.901.166.155 1.087.88 1.247.317.236-.848.682-1.7 1.689-2.27h0zm-45.274-30.916c0 .069-.057.126-.126.126s-.125-.057-.125-.126.058-.125.125-.125.126.056.126.125zm2.643 1.153c.303 0 .222.32.753 1.106.469.694.773.971 1.352 1.555.286.282.505.366.505.547 0 .368-.204.455-.645.455-.707 0-2.335-1.398-3.757-2.182-.011-.108-.032-.245-.068-.41a.94.94 0 0 0 .23-.305l2.269 1.88a.22.22 0 0 0 .131.062c.121.01.196-.122.057-.239-1.723-1.465-2.352-2.541-2.604-2.417-.036.017-.065.06-.087.129a1.44 1.44 0 0 1-.162.311.59.59 0 0 1-.024-.134.61.61 0 0 1 .055-.268.89.89 0 0 1 .898-.507c.263.258.672.417 1.097.417zm-9.697 8.624c-.647.061-1.039.269-.959.472a1.8 1.8 0 0 0-.615-.101c-.198.002-.41.031-.699.069-.432.058-2.59.726-2.498 1.433-.894.14-1.906.462-2.388 1.249-.119.194-.465.697-.377.928-1.25.816-1.347 2.687-.683 2.625-.196.279-.397.605-.808 1.092-.242-.611-.415-1.112-.415-1.806 0-1.118.829-1.488.854-1.86.05-.655.435-1.284.943-1.707.172-.146.201-.323.106-.458.715-.706 1.433-1.117 2.407-1.342.318-.071.619-.387.459-.583a7.03 7.03 0 0 1 2.595-.525c.779 0 1.757.15 2.077.513zm-11.535 18.224c.201-.525 1.239-1.634 1.573-2.037.887-1.054 1.943-2.372 2.472-3.658l1.864-.351c-.001 0-.48.632-.573 1.198-.786 1.117-1.946 2.377-3.002 3.488-.119.129-.005.296.128.3a.17.17 0 0 0 .132-.057l2.875-3.064c.209.346.654.476 1.193.476h.001l.087-.003c-1 1.011-2.127 1.894-3.214 2.803-.136.112-.044.292.088.312.044.007.092-.005.138-.043l3.625-3.118c.91-.127 1.462-.436 1.681-.6l.017.656c-.84.669-5.57 4.877-6.463 4.877-.466 0-2.623-.469-2.623-1.177zm9.079-5.561c.065.005.153-.017.27-.076-.199.29-.235.42-.248.622-.62.542-1.34.816-2.437.816-.782 0-.769-.268-.769-.576 0-.481.522-1.042 1.007-1.497a21.81 21.81 0 0 0 2.496-.925c-.111.186-.778 1.599-.319 1.636zm8.315 7.661c-.255-.006-.522.013-.772.074-.871.21.375.106.771 1.446.061.213-.02.39-.098.563-.446-.289-1.131-.696-1.77-.696h-.001c-.908 0-1.205.689-1.64 1.1l-.106.094c-.285-.799-.859-1.602-1.807-2.136l-.228-.127c-.428-.241-.465-.457-.465-.861 0-.309-.058-1.114-.16-1.927a.96.96 0 0 0-.093-.273c-.085-.183-.199-.373-.223-.528-.08-.483-.179-.985-.287-1.253l-.034-.092.011-.004c-.169-.415-.178-.922-.026-1.38.156-.467.164-.747.091-.802s-.229.11-.403.537c-.092.214-.313.449-.375.449-.146 0-.22-1.543.096-1.967.467-.612.553-.81.479-.839-.099-.039-.483.224-.633.216-.037-.002-.06-.02-.06-.065.016-.404.468-.929 1.156-1.455l2-1.51c.896-.723 1.331-1.25 1.058-1.183-.163.039-.581.292-1.308.848-3.932 2.815-8.344 3.536-11.477 3.536-.612 0-1.841-.085-1.633-.241.18-.153 1.866-1.609 3.423-3.584a4.74 4.74 0 0 0 .099.52c.223.424.556 1.098 2.191 1.098.119 0 .182-.077.179-.158.06.053.121.104.19.153-1.249.348-2.525.574-3.742.673-.235.017 0 .295.235.273 1.29-.101 2.758-.289 4.095-.683.139.033.29.051.447.051 0 0 1.55-.035 1.241-.452-.092-.122-.166-.234-.237-.343.221.154.49.258.8.312a.18.18 0 0 0 .061-.35c-.651-.112-1.036-.462-1.19-1.057-.028-.111-.104-.164-.178-.162s-.145.061-.165.175c-.076.404.104.886.478 1.43-.244.058-.548.094-.811.094-1.071 0-1.711-1.061-1.361-2.086.058-.174-.098-.286-.222-.237a.2.2 0 0 0-.105.107c-.222.484-.365 1.258-.043 1.91-.728-.017-1.223-.309-1.525-.856-.09-.375-.12-.655-.105-.851.376-.511.739-1.039 1.08-1.578.412-.658.405-.827.245-.812s-.474.211-.672.288l-.424.17c.082-1.02.67-1.546 1.798-1.884 1.306-.388.643-.53.133-.539a2.66 2.66 0 0 0-.203.005l-.427.037c.425-.7 1.458-1.18 2.297-1.232a2.14 2.14 0 0 1 .345.004c.261.024.547.069.724.069.296 0 .295-.122-.609-.659.72-.475 1.574-.785 2.406-.757a2.79 2.79 0 0 1 .821.148c.218.074.367.109.466.114.299.017.149-.228.047-.47.261-.064.508-.101.748-.105.719-.011 1.37.268 2.121.929.296.384 3.072 1.629 3.306 1.78l.084.235c.025.079.078.133.142.156s.139.018.211-.021c0 0 .017-.011.035-.025l.016.044c.026.08.078.133.142.157a.25.25 0 0 0 .211-.023s.258-.156.272-.419.236-1.273.112-1.795-.111-.822-.731-1.813c-.713-1.141-1.607-2.186-2.401-3.271a47.1 47.1 0 0 1-1.466-2.096c-.216-.331-.445-.667-.618-1.022-.115-.237-.202-.487-.261-.743-.034-.146-.008-.583-.083-.702a.05.05 0 0 0 .018-.042c-.106-2.171 1.856-4.158 3.995-4.158.882 0 1.536.45 2.205.911.078.052.153.124.225.206l.031.122c.027.216-.016.546-.109.908-.05.084-.115.157-.205.156-.153 0-.602-.211-.861-.286-.043-.021-.076-.022-.108-.032-.07-.018-.139-.028-.206-.027-.2.001-.373.089-.442.252-.085.201.019.436.23.588.202.205.532.454.794.566.127.054.102.232.062.372-.372.489-.65.559-.765.564-.038.001-.058-.005-.058-.005h.001-.001l.327.204c-.994-.04-1.727-.512-1.999-1.909-.137-.698-.223-.937-.317-.891s-.194.38-.357.825c-.234.646-.355 1.059-.354 1.749 0 2.005 1.558 3.034 2.77 4.085l.678.595s3.708 3.811 3.939 4.534c0 0 .612 1.44.674 2.386s-.297 2.465-.297 2.465c-.561 1.88-2.169 3.481-3.882 4.67a7.34 7.34 0 0 1-.152-.626c-1.73 1.433-3.835 2.484-4.836 2.665l-.009-.005c-.207-.439.614-1.301.791-1.413.435-.278 1.993-.71 3.775-2.339.186-.166.044-.413-.142-.43-.061-.006-.128.014-.189.069-1.698 1.548-2.764 1.662-3.289 1.703l-.136-.035c-.113-.278-.251-.523-.17-.7.104-.226-.123-.397-.3-.342a.24.24 0 0 0-.148.138c-.128.281-.208.835-.153 1.316-.385 1.351-1.301 2.149-1.766 3.462l-.048.085-.272.754a20.62 20.62 0 0 0-.017.487l-.065 1.381-.006.067c-.027.283-.256.679-.23.833.19 1.108.992 1.568 2.165 1.542.422-.01.907-.061 1.391-.061 1.302 0 2.356.333 2.837 1.055a4.18 4.18 0 0 0-.701-.08zm1.503-.985a.87.87 0 0 0-.242.039c-.269.091-.752.202-.753.203s-1.271-.567-1.775-.567c-.254 0-.639.015-1.026.019s-.777 0-1.037-.038c-.522-.078-1.396.036-1.638-.748-.134-.432-.104-1.256-.051-1.915.044-.536.101-.965.101-.965-.002-.049.764-1.729.818-1.874.035-.01.088-.009.149-.005l.183.013c.047.001.088 0 .117-.008-.017.056-.996 2.15-.995 2.186.009.543-.228 2.29.497 2.327s2.473.186 2.881.168 2.629.183 3.17.641c.534.454.54.562.352.562-.141 0-.478-.051-.751-.039zm-2.094-1.468h-.001-.271c-.818 0-2.779-.016-3.107-.238-.304-.205-.216-.76-.294-1.456-.04-.353.809-2.205 1.088-2.719l.312-.024c.627-.004 1.543-.37 2.247-.699.021-.009.044-.02.067-.032.54-.255.944-.482.944-.482h-.002c.871-.459 1.672-.921 2.232-1.33l1.756-1.278c1.478-1.519 1.704-2.72 1.932-3.764.169-.774.191-1.34.191-2.274 0-.613-.489-2.22-.852-2.741-.45-.905-4.125-4.723-4.125-4.723-.26-.157-.489-.358-.72-.569-1.117-1.024-2.438-1.872-2.438-3.473 0-.154.003-.293.016-.424.794 1.35 1.783 1.152 2.915 1.655 1.198.532 3.136 2.048 4.309 2.233.323.042.869-.107 1.038-.343.144-.188.223-.361.223-.604 0-.51-.733-.801-1.3-1.583-.315-.434-.699-.915-.969-1.377-.063-.719.142-1.785-.353-2.295-.407-.421-1.083-.641-1.402-.767-1.129-.659-1.845-1.479-3.281-1.479-1.294 0-2.477.618-3.31 1.591-.861 1.003-1.438 2.288-1.207 3.63.153.908.667 2.034 1.176 2.779.525.767 1.096 1.504 1.664 2.239.81 1.047 1.98 2.188 2.447 3.451.345.933.322 1.503.266 1.786l-.169-.071c-.249-.148-.449-.343-.673-.513-.242-.129-2.986-1.264-3.205-1.417l.01.038c-.518-.376-1.003-.616-1.366-.642-.022-.053-.064-.107-.133-.15-.989-.678-1.752-.824-3.005-.824-.547 0-3.619.354-3.442 1.153-.488.163-3.025 1.426-2.687 2.065-.382.434-.908 1.152-.97 1.718-.058.248-.826.776-.826 2.041 0 .907.14 1.461.56 2.313-1.536 1.926-2.126 2.24-3.599 3.454-.968.8 2.105.978 2.51.978a23.31 23.31 0 0 0 2.238-.109c-.807 1.71-2.23 3.065-3.382 4.54-.203.266-.566.719-.566 1.086 0 1.319 2.469 1.884 3.329 1.884.691 0 1.713-.752 2.825-1.65l3.796-3.156c.053.101.121.164.206.175s.187-.033.309-.145c.068.67.346.819.553 1.349-.117.527.153.939.153.939.335 1.168.194.996.194 2.22 0 .544-.101.833.507 1.172l.23.127c1.006.57 1.453 1.422 1.689 2.27.04.142.128.202.239.21.334.027.884-.41 1.008-.527.211-.202.655-.9 1.065-.9.685 0 1.545.96 2.021.863a.31.31 0 0 0 .18-.112c.318-.393.378-.712.378-1.1 0-.22-.18-.648-.528-1.035.257.037.813.237 1.155.243.204.004.332-.063.273-.279-.076-.27-.232-.487-.399-.696.087-.086.334-.294.64-.264.259.036.815.238 1.156.244.205.004.333-.063.274-.279-.376-1.338-1.969-1.908-3.743-1.908h0z"/></g></g></svg>